<?xml version="1.0" encoding="utf-8"?>
<!-- Generator: Adobe Illustrator 19.2.1, SVG Export Plug-In . SVG Version: 6.00 Build 0)  -->
<svg xmlns="http://www.w3.org/2000/svg" xmlns:xlink="http://www.w3.org/1999/xlink" version="1.1" id="Layer" x="0px" y="0px" width="512" height="512" viewBox="0 0 64 64" enable-background="new 0 0 64 64" xml:space="preserve">
<path fill="#CCE4FF" d="M44.65,26h8.52C51.1,18.67,45.33,12.9,38,10.83v8.52C40.91,20.73,43.27,23.09,44.65,26z"/>
<path fill="#CCE4FF" d="M53.17,38h-8.52c-1.38,2.91-3.74,5.27-6.65,6.65v8.52C45.33,51.1,51.1,45.33,53.17,38z"/>
<circle fill="#CCE4FF" cx="32" cy="32" r="8"/>
<path fill="#CCE4FF" d="M26,53.17v-8.52c-2.91-1.38-5.27-3.74-6.65-6.65h-8.52C12.9,45.33,18.67,51.1,26,53.17z"/>
<path fill="#CCE4FF" d="M26,19.35v-8.52C18.67,12.9,12.9,18.67,10.83,26h8.52C20.73,23.09,23.09,20.73,26,19.35z"/>
<path fill="#007AFF" d="M9.07,33.798l0.021,0.296c0,0.002,0.001,0.003,0.001,0.005l0.003,0.035c0.042,0.4,0.084,0.788,0.143,1.137  c0.022,0.187,0.046,0.373,0.074,0.507c0.002,0.01,0.004,0.02,0.005,0.03c0.001,0.003,0.001,0.006,0.001,0.009  c0,0.001,0,0.001,0.001,0.001c0.1,0.619,0.214,1.183,0.35,1.717c0.006,0.024,0.013,0.046,0.019,0.069l0.018,0.07  c0.007,0.027,0.016,0.054,0.023,0.081c0.028,0.104,0.054,0.21,0.085,0.311c0.014,0.091,0.038,0.18,0.071,0.266  c2.164,7.58,8.203,13.618,15.782,15.781c0.085,0.033,0.173,0.056,0.264,0.07c0.112,0.034,0.225,0.062,0.338,0.092  c0.037,0.01,0.074,0.021,0.111,0.031l0-0.001c0.027,0.007,0.054,0.015,0.082,0.022c0.539,0.137,1.113,0.254,1.723,0.352  c0.171,0.034,0.353,0.058,0.504,0.076c0.005,0.001,0.01,0.001,0.015,0.002c0.005,0.001,0.01,0.002,0.015,0.002v0  c0.379,0.06,0.757,0.102,1.184,0.146l0.288,0.021c0.215,0.017,0.43,0.033,0.625,0.04C31.204,54.99,31.602,55,32,55  c0.397,0,0.785-0.01,1.164-0.03c0.215-0.007,0.43-0.024,0.645-0.041l0.288-0.021c0,0,0,0,0,0l0.038-0.003  c0.399-0.042,0.787-0.084,1.146-0.143c0.182-0.023,0.363-0.047,0.499-0.074c0.012-0.002,0.022-0.004,0.034-0.006  c0,0,0.001,0,0.001,0c0,0,0,0,0,0c0.63-0.102,1.194-0.217,1.717-0.351c0.027-0.007,0.052-0.015,0.079-0.021  c0.003-0.001,0.006,0,0.009-0.001c0.053-0.014,0.106-0.03,0.159-0.044c0.096-0.026,0.195-0.05,0.29-0.078  c0.091-0.014,0.179-0.037,0.264-0.07c7.579-2.163,13.618-8.202,15.782-15.781c0.033-0.086,0.058-0.175,0.071-0.266  c0.025-0.084,0.047-0.172,0.07-0.258c0.012-0.045,0.026-0.09,0.038-0.135l0.033-0.127c0-0.001,0-0.001,0-0.002  c0.001-0.004,0.002-0.007,0.003-0.01c0.14-0.546,0.257-1.122,0.352-1.718c0.035-0.174,0.059-0.36,0.076-0.506  c0.063-0.389,0.105-0.777,0.151-1.217l0.021-0.296c0.017-0.212,0.032-0.424,0.039-0.615C54.99,32.786,55,32.398,55,32  s-0.01-0.786-0.031-1.163c-0.007-0.212-0.022-0.424-0.039-0.636l-0.021-0.296c0-0.002-0.001-0.003-0.001-0.005l-0.003-0.035  c-0.042-0.4-0.084-0.788-0.143-1.137c-0.022-0.187-0.046-0.373-0.074-0.507c-0.002-0.01-0.004-0.02-0.005-0.03  c-0.001-0.003-0.001-0.006-0.001-0.009c0,0,0-0.001-0.001-0.001c-0.1-0.619-0.214-1.183-0.35-1.717  c-0.006-0.024-0.013-0.046-0.019-0.069l-0.018-0.07c-0.007-0.027-0.016-0.054-0.023-0.081c-0.028-0.104-0.054-0.21-0.085-0.311  c-0.014-0.091-0.038-0.18-0.071-0.266c-2.164-7.58-8.203-13.618-15.782-15.781c-0.085-0.033-0.173-0.056-0.264-0.07  c-0.112-0.034-0.225-0.062-0.338-0.092c-0.037-0.01-0.074-0.021-0.111-0.031l0,0.001c-0.027-0.007-0.054-0.015-0.082-0.022  c-0.539-0.137-1.113-0.254-1.723-0.352c-0.171-0.034-0.353-0.058-0.504-0.076c-0.005-0.001-0.01-0.001-0.015-0.002  c-0.005-0.001-0.01-0.002-0.015-0.002v0c-0.379-0.06-0.757-0.102-1.184-0.146l-0.288-0.021c-0.215-0.017-0.43-0.033-0.625-0.04  c-0.31-0.017-0.632-0.022-0.951-0.025C32.154,9.005,32.074,9,31.995,9c-0.398,0-0.791,0.01-1.159,0.03  c-0.215,0.007-0.43,0.024-0.645,0.041l-0.288,0.021c0,0,0,0,0,0l-0.038,0.003c-0.399,0.042-0.787,0.084-1.146,0.143  c-0.182,0.023-0.363,0.047-0.499,0.074c-0.012,0.002-0.022,0.004-0.034,0.006c0,0-0.001,0-0.001,0c0,0,0,0,0,0  c-0.63,0.102-1.194,0.217-1.717,0.351c-0.028,0.007-0.054,0.015-0.082,0.022c-0.002,0-0.004,0-0.006,0  c-0.053,0.014-0.106,0.03-0.159,0.044c-0.096,0.026-0.195,0.05-0.29,0.078c-0.091,0.014-0.179,0.037-0.264,0.07  c-7.579,2.163-13.618,8.202-15.782,15.781c-0.033,0.086-0.058,0.175-0.071,0.266c-0.025,0.084-0.047,0.172-0.07,0.258  c-0.012,0.045-0.026,0.09-0.038,0.135l-0.033,0.127c0,0.001,0,0.001,0,0.002c-0.001,0.004-0.002,0.007-0.003,0.01  c-0.14,0.546-0.257,1.122-0.352,1.718c-0.035,0.174-0.059,0.36-0.076,0.506c-0.063,0.389-0.105,0.777-0.151,1.217L9.07,30.202  c-0.017,0.212-0.032,0.424-0.039,0.615C9.01,31.214,9,31.602,9,32s0.01,0.786,0.031,1.163C9.038,33.375,9.054,33.586,9.07,33.798z   M26.449,20.244c0.146-0.073,0.302-0.139,0.505-0.225c0,0,0,0,0.001,0c0.168-0.072,0.339-0.137,0.524-0.208l0.145-0.053  c0.148-0.053,0.293-0.104,0.443-0.149c0.021-0.006,0.035-0.022,0.055-0.029c0.013-0.003,0.026-0.003,0.039-0.007l0.003,0.007  c0.151-0.045,0.303-0.09,0.507-0.14c0.149-0.043,0.309-0.088,0.452-0.121c0.22-0.045,0.441-0.091,0.681-0.132  c0.244-0.038,0.488-0.076,0.74-0.105c0.173-0.021,0.353-0.015,0.53-0.046c0.067-0.011,0.14-0.016,0.249-0.017  c0.449-0.02,0.861-0.021,1.396,0.001c0.066,0,0.139,0.005,0.206,0.016c0.177,0.031,0.346,0.024,0.554,0.049  c0.239,0.028,0.478,0.065,0.716,0.101c0.222,0.037,0.445,0.084,0.669,0.13c0.158,0.035,0.316,0.08,0.517,0.137  c0.152,0.036,0.304,0.081,0.455,0.126l0.002-0.007c0.013,0.004,0.027,0.003,0.04,0.007c0.02,0.007,0.034,0.023,0.055,0.029  c0.15,0.045,0.295,0.097,0.443,0.149l0.149,0.055c0.171,0.065,0.343,0.131,0.515,0.204c0.016,0.007,0.028,0.011,0.044,0.018  c0.158,0.067,0.317,0.133,0.488,0.219c2.7,1.28,4.894,3.473,6.185,6.192c0.079,0.16,0.15,0.329,0.23,0.519  c0.076,0.18,0.144,0.358,0.205,0.516l0.067,0.187c0.036,0.103,0.07,0.204,0.103,0.307c0.019,0.058,0.036,0.111,0.059,0.187  l0.263,0.969c0.046,0.22,0.092,0.441,0.132,0.684c0.016,0.104,0.03,0.211,0.045,0.316c0.02,0.141,0.042,0.275,0.06,0.43  c0.014,0.115,0.031,0.236,0.031,0.35c0,0.054,0.004,0.108,0.013,0.161c0.012,0.067,0.018,0.141,0.019,0.25  C44.99,31.548,45,31.774,45,32s-0.01,0.452-0.019,0.678c-0.001,0.014-0.001,0.028-0.001,0.042c0,0.067-0.006,0.141-0.018,0.208  c-0.009,0.053-0.013,0.107-0.013,0.161c0,0.121-0.018,0.249-0.033,0.375c-0.029,0.248-0.067,0.496-0.104,0.731  c-0.037,0.225-0.084,0.45-0.131,0.674l-0.002,0.007c0,0,0,0,0,0l-0.289,1.057c-0.041,0.135-0.087,0.265-0.134,0.398l-0.059,0.164  c-0.053,0.14-0.109,0.28-0.166,0.42c-0.019,0.045-0.033,0.087-0.054,0.134c-0.071,0.17-0.143,0.341-0.231,0.52  c-1.282,2.702-3.476,4.895-6.196,6.185c-0.146,0.073-0.302,0.139-0.505,0.225c0,0,0,0-0.001,0c-0.168,0.072-0.339,0.137-0.524,0.208  l-0.145,0.053c-0.148,0.053-0.293,0.104-0.443,0.149c-0.023,0.007-0.039,0.025-0.062,0.033c-0.01,0.003-0.021,0.001-0.031,0.004  l-0.004-0.009l-0.959,0.26c-0.22,0.045-0.441,0.091-0.681,0.132c-0.244,0.038-0.488,0.076-0.74,0.105  c-0.172,0.021-0.353,0.016-0.53,0.046c-0.067,0.011-0.14,0.016-0.249,0.017c-0.449,0.02-0.861,0.021-1.396-0.001  c-0.066,0-0.139-0.005-0.206-0.016c-0.177-0.03-0.345-0.024-0.554-0.049c-0.239-0.028-0.478-0.065-0.716-0.101  c-0.222-0.037-0.445-0.084-0.668-0.13l-0.972-0.263l-0.003,0.009c-0.011-0.003-0.021-0.002-0.032-0.005  c-0.022-0.009-0.039-0.026-0.062-0.033c-0.15-0.045-0.295-0.097-0.443-0.149l-0.149-0.055c-0.171-0.065-0.343-0.131-0.515-0.204  c-0.016-0.007-0.028-0.011-0.044-0.018c-0.158-0.067-0.317-0.133-0.488-0.219c-2.7-1.28-4.894-3.473-6.185-6.192  c-0.079-0.16-0.15-0.329-0.23-0.519c-0.076-0.18-0.144-0.358-0.205-0.516l-0.067-0.187c-0.047-0.133-0.093-0.263-0.134-0.398  c-0.007-0.024-0.025-0.04-0.034-0.063c-0.006-0.022-0.002-0.044-0.009-0.065l0.004-0.002c-0.016-0.056-0.033-0.114-0.05-0.173  c-0.006-0.02-0.011-0.04-0.017-0.06c-0.02-0.074-0.041-0.153-0.064-0.248c-0.044-0.148-0.088-0.305-0.121-0.454  c-0.046-0.22-0.092-0.441-0.132-0.684c-0.016-0.104-0.03-0.211-0.045-0.316c-0.02-0.141-0.042-0.275-0.06-0.43  c-0.014-0.115-0.031-0.236-0.031-0.35c0-0.054-0.004-0.108-0.013-0.161c-0.012-0.067-0.018-0.141-0.019-0.25  C19.01,32.452,19,32.226,19,32s0.01-0.452,0.02-0.72c0-0.067,0.006-0.141,0.018-0.208c0.009-0.053,0.013-0.107,0.013-0.161  c0-0.121,0.018-0.249,0.033-0.375c0.029-0.248,0.067-0.496,0.104-0.731c0.037-0.225,0.084-0.45,0.131-0.674l0.002-0.007  c0,0,0-0.001,0-0.002c0.035-0.151,0.077-0.304,0.136-0.507c0.032-0.14,0.073-0.279,0.114-0.418l-0.004-0.001  c0.006-0.019,0.003-0.039,0.008-0.058c0.01-0.025,0.027-0.045,0.035-0.071c0.041-0.135,0.087-0.265,0.134-0.398l0.059-0.164  c0.053-0.14,0.109-0.28,0.166-0.42c0.019-0.045,0.033-0.087,0.054-0.134c0.071-0.17,0.143-0.341,0.231-0.52  C21.535,23.727,23.729,21.534,26.449,20.244z M52.402,27c0.119,0.476,0.221,0.98,0.318,1.578c0.025,0.122,0.04,0.252,0.056,0.381  c0.002,0.019,0.004,0.033,0.007,0.053c0.058,0.351,0.096,0.702,0.13,1.023l0.023,0.321c0.015,0.182,0.028,0.364,0.035,0.567  C52.99,31.286,53,31.638,53,32s-0.01,0.714-0.029,1.097c-0.007,0.183-0.021,0.365-0.035,0.546l-0.022,0.308  c-0.037,0.352-0.075,0.695-0.136,1.077c-0.017,0.134-0.032,0.268-0.064,0.433c-0.09,0.559-0.193,1.062-0.312,1.538h-6.257  l0.001-0.003c0.058-0.164,0.113-0.324,0.147-0.442c0.004-0.012,0.005-0.018,0.009-0.03c0.002-0.006,0.004-0.013,0.006-0.019  c0-0.001,0-0.001,0-0.002c0.013-0.038,0.027-0.079,0.032-0.103l0.03-0.108c0.049-0.151,0.098-0.303,0.134-0.454  c0.002-0.009-0.001-0.018,0.001-0.027l0.05-0.178c0.028-0.111,0.057-0.224,0.086-0.358c0.052-0.251,0.104-0.501,0.142-0.728  c0.001-0.007,0.002-0.015,0.003-0.022c0.001-0.005,0.002-0.009,0.003-0.014c0.041-0.264,0.081-0.529,0.111-0.788  c0.002-0.015,0.004-0.028,0.006-0.043c0.02-0.161,0.037-0.322,0.042-0.49c0-0.006,0.001-0.012,0.002-0.019  c0.02-0.142,0.03-0.29,0.031-0.429C46.99,32.495,47,32.248,47,32c0-0.253-0.01-0.506-0.02-0.72c0-0.146-0.011-0.303-0.031-0.452  c-0.001-0.029-0.006-0.058-0.008-0.087c-0.008-0.145-0.02-0.287-0.038-0.439c-0.033-0.283-0.067-0.567-0.117-0.826  c-0.042-0.25-0.094-0.5-0.146-0.759l-0.001,0c-0.001-0.005-0.002-0.009-0.003-0.014c-0.024-0.113-0.053-0.226-0.081-0.336  l-0.05-0.178c-0.002-0.009,0.001-0.018-0.001-0.028c-0.04-0.167-0.092-0.334-0.148-0.502l-0.005-0.016  c-0.02-0.079-0.038-0.138-0.044-0.149c-0.05-0.167-0.105-0.327-0.163-0.491L46.143,27H52.402z M17.855,27.003  c-0.058,0.164-0.113,0.324-0.147,0.442c-0.003,0.008-0.005,0.017-0.008,0.025c-0.002,0.008-0.006,0.016-0.008,0.024  c0,0.001,0,0.002,0,0.003c-0.015,0.044-0.029,0.086-0.042,0.135c-0.052,0.178-0.104,0.356-0.128,0.472  c-0.058,0.192-0.113,0.396-0.163,0.62c-0.052,0.251-0.104,0.501-0.142,0.728c-0.001,0.007-0.002,0.015-0.003,0.022  c-0.001,0.005-0.002,0.009-0.003,0.014c-0.041,0.264-0.081,0.529-0.111,0.788c-0.002,0.015-0.004,0.028-0.006,0.043  c-0.019,0.155-0.034,0.311-0.041,0.472c0,0.012-0.003,0.024-0.003,0.036c-0.021,0.148-0.031,0.3-0.03,0.413  C17.01,31.494,17,31.747,17,32s0.01,0.506,0.02,0.72c0,0.146,0.011,0.303,0.031,0.452c0.001,0.029,0.006,0.058,0.008,0.087  c0.008,0.145,0.02,0.287,0.038,0.439c0.033,0.283,0.067,0.567,0.117,0.826c0.042,0.25,0.094,0.5,0.146,0.759l0.001,0  c0.001,0.005,0.002,0.009,0.003,0.014c0.045,0.203,0.101,0.407,0.142,0.537c0.041,0.178,0.093,0.356,0.143,0.523  c0.02,0.079,0.038,0.138,0.044,0.149c0.05,0.167,0.105,0.327,0.163,0.491L17.857,37h-6.258c-0.119-0.476-0.221-0.98-0.318-1.578  c-0.025-0.122-0.04-0.252-0.056-0.381c-0.002-0.019-0.004-0.033-0.007-0.053c-0.058-0.351-0.096-0.702-0.13-1.023l-0.023-0.321  c-0.015-0.182-0.028-0.364-0.035-0.567C11.01,32.714,11,32.362,11,32s0.01-0.714,0.029-1.097c0.007-0.183,0.021-0.365,0.035-0.546  l0.022-0.308c0.037-0.352,0.075-0.695,0.136-1.077c0.017-0.134,0.032-0.268,0.064-0.433c0.09-0.559,0.193-1.062,0.312-1.538h6.257  L17.855,27.003z M12.197,39h6.551c1.41,2.667,3.6,4.854,6.252,6.252v6.551C19.055,49.699,14.302,44.945,12.197,39z M33.653,52.935  c-0.186,0.015-0.372,0.029-0.577,0.037c-0.282,0.015-0.569,0.02-0.857,0.023C32.148,52.995,32.076,53,32.005,53  c-0.362,0-0.728-0.01-1.1-0.03c-0.186-0.006-0.372-0.021-0.558-0.036l-0.277-0.02c-0.359-0.038-0.71-0.075-1.101-0.138  c-0.134-0.017-0.269-0.033-0.43-0.064c-0.565-0.091-1.066-0.194-1.539-0.312v-6.258c0.163,0.058,0.324,0.115,0.468,0.157  c0.003,0.001,0.005,0.001,0.008,0.002c0.006,0.002,0.012,0.004,0.018,0.006c0.001,0,0.002,0,0.003,0  c0.039,0.013,0.082,0.027,0.099,0.03l0.127,0.036c0.147,0.047,0.294,0.095,0.441,0.13c0.012,0.003,0.024,0.002,0.037,0.004  l0.166,0.047c0.111,0.028,0.224,0.057,0.351,0.084c0.253,0.053,0.506,0.105,0.733,0.143c0.009,0.002,0.017,0.002,0.026,0.004  c0.008,0.001,0.015,0.003,0.024,0.005c0.269,0.042,0.536,0.082,0.796,0.112c0.175,0.022,0.35,0.042,0.532,0.047  c0.024,0.003,0.048,0.002,0.072,0.005c0.121,0.014,0.243,0.025,0.337,0.025C31.491,46.99,31.745,47,32,47s0.509-0.01,0.72-0.02  c0.146,0,0.304-0.01,0.453-0.031c0.176-0.005,0.357-0.025,0.523-0.046c0.002,0,0.005-0.001,0.008-0.001c0.003,0,0.007,0,0.01-0.001  c0.278-0.032,0.557-0.066,0.812-0.115c0.252-0.042,0.505-0.094,0.758-0.147c0,0,0,0,0,0c0.005-0.001,0.009-0.002,0.014-0.003  c0.112-0.025,0.225-0.054,0.336-0.082l0.166-0.047c0.013-0.002,0.025-0.001,0.037-0.004c0.156-0.036,0.313-0.087,0.47-0.138  l0.051-0.014c0.069-0.017,0.124-0.035,0.149-0.043c0.168-0.05,0.329-0.107,0.493-0.166V52.4c-0.469,0.118-0.973,0.221-1.574,0.319  c-0.126,0.025-0.261,0.041-0.4,0.059c0,0-0.001,0-0.001,0c-0.012,0.002-0.021,0.003-0.034,0.004  c-0.352,0.057-0.704,0.095-1.026,0.13L33.653,52.935z M39,51.803v-6.551c2.664-1.409,4.852-3.598,6.252-6.252h6.551  C49.698,44.945,44.945,49.699,39,51.803z M51.803,25h-6.551c-1.41-2.667-3.6-4.854-6.252-6.252v-6.551  C44.945,14.301,49.698,19.055,51.803,25z M30.347,11.065c0.186-0.015,0.372-0.029,0.577-0.037c0.282-0.015,0.569-0.02,0.857-0.023  C31.852,11.005,31.924,11,31.995,11c0.362,0,0.728,0.01,1.1,0.03c0.186,0.006,0.372,0.021,0.558,0.036l0.277,0.02  c0.359,0.038,0.71,0.075,1.101,0.138c0.134,0.017,0.269,0.033,0.43,0.064c0.565,0.091,1.066,0.194,1.539,0.312v6.258  c-0.163-0.058-0.324-0.115-0.468-0.157c-0.003-0.001-0.005-0.001-0.008-0.002c-0.006-0.002-0.012-0.004-0.018-0.006  c-0.001,0-0.002,0-0.003,0c-0.04-0.013-0.082-0.027-0.1-0.031c-0.188-0.056-0.377-0.11-0.513-0.141  c-0.19-0.056-0.393-0.112-0.608-0.16c-0.253-0.053-0.506-0.105-0.733-0.143c-0.009-0.002-0.017-0.002-0.026-0.004  c-0.008-0.001-0.015-0.003-0.024-0.005c-0.269-0.042-0.536-0.082-0.796-0.112c-0.175-0.022-0.35-0.042-0.532-0.047  c-0.024-0.003-0.048-0.002-0.072-0.005c-0.12-0.012-0.242-0.017-0.337-0.025c-0.013-0.001-0.027,0-0.041-0.001  c-0.001,0-0.001,0-0.002,0c0,0,0,0,0,0c-0.496-0.02-1.029-0.019-1.439,0c-0.146,0-0.304,0.01-0.453,0.031  c-0.176,0.005-0.357,0.025-0.523,0.046c-0.002,0-0.005,0.001-0.008,0.001c-0.003,0-0.007,0-0.01,0.001  c-0.278,0.032-0.557,0.066-0.812,0.115c-0.252,0.042-0.505,0.094-0.758,0.147c0,0,0,0,0,0c-0.005,0.001-0.009,0.002-0.014,0.003  c-0.201,0.045-0.403,0.101-0.542,0.143c-0.188,0.044-0.376,0.099-0.518,0.142c-0.069,0.017-0.124,0.035-0.149,0.043  c-0.168,0.05-0.329,0.107-0.493,0.166V11.6c0.469-0.118,0.973-0.221,1.574-0.319c0.126-0.025,0.261-0.041,0.4-0.059  c0,0,0.001,0,0.001,0c0.012-0.002,0.021-0.003,0.034-0.004c0.352-0.057,0.704-0.095,1.026-0.13L30.347,11.065z M25,12.197v6.551  c-2.664,1.409-4.852,3.598-6.252,6.252h-6.551C14.302,19.055,19.055,14.301,25,12.197z"/>
<path fill="#007AFF" d="M32,41c4.963,0,9-4.038,9-9s-4.037-9-9-9s-9,4.038-9,9S27.037,41,32,41z M32,25c3.859,0,7,3.14,7,7  s-3.141,7-7,7s-7-3.14-7-7S28.141,25,32,25z"/>
</svg>
